<svg width="48" height="48" viewBox="0 0 48 48" fill="none" xmlns="http://www.w3.org/2000/svg">
<circle opacity="0.2" cx="24" cy="24" r="24" fill="#F2994A"/>
<path d="M31.0909 12H13.6364C13.2025 12.0004 12.7866 12.1523 12.4798 12.4222C12.173 12.6922 12.0005 13.0582 12 13.44V31.68C12.0005 32.0618 12.173 32.4278 12.4798 32.6978C12.7866 32.9677 13.2025 33.1196 13.6364 33.12H15.2727V34.56C15.2732 34.9418 15.4458 35.3078 15.7525 35.5778C16.0593 35.8477 16.4752 35.9996 16.9091 36H34.3636C34.7975 35.9996 35.2134 35.8477 35.5202 35.5778C35.827 35.3078 35.9995 34.9418 36 34.56V16.32C35.9995 15.9382 35.827 15.5722 35.5202 15.3022C35.2134 15.0323 34.7975 14.8804 34.3636 14.88H32.7273V13.44C32.7268 13.0582 32.5542 12.6922 32.2475 12.4222C31.9407 12.1523 31.5248 12.0004 31.0909 12ZM13.0909 31.68V13.44C13.091 13.3127 13.1485 13.1907 13.2508 13.1007C13.353 13.0107 13.4917 12.9601 13.6364 12.96H15.2727V15.36C15.2727 15.8692 15.5026 16.3576 15.9118 16.7176C16.3209 17.0777 16.8759 17.28 17.4545 17.28C18.0332 17.28 18.5882 17.0777 18.9973 16.7176C19.4065 16.3576 19.6364 15.8692 19.6364 15.36V14.88C19.6364 14.7527 19.5789 14.6306 19.4766 14.5406C19.3743 14.4506 19.2356 14.4 19.0909 14.4C18.9462 14.4 18.8075 14.4506 18.7052 14.5406C18.6029 14.6306 18.5455 14.7527 18.5455 14.88V15.36C18.5455 15.6146 18.4305 15.8588 18.2259 16.0388C18.0213 16.2189 17.7439 16.32 17.4545 16.32C17.1652 16.32 16.8877 16.2189 16.6832 16.0388C16.4786 15.8588 16.3636 15.6146 16.3636 15.36V12.96H31.0909C31.2355 12.9601 31.3742 13.0107 31.4765 13.1007C31.5788 13.1907 31.6363 13.3127 31.6364 13.44V31.68C31.6363 31.8073 31.5788 31.9293 31.4765 32.0193C31.3742 32.1093 31.2355 32.1599 31.0909 32.16H13.6364C13.4917 32.1599 13.353 32.1093 13.2508 32.0193C13.1485 31.9293 13.091 31.8073 13.0909 31.68ZM34.3636 15.84C34.5083 15.8401 34.647 15.8907 34.7492 15.9807C34.8515 16.0707 34.909 16.1927 34.9091 16.32V34.56C34.909 34.6873 34.8515 34.8093 34.7492 34.8993C34.647 34.9893 34.5083 35.0399 34.3636 35.04H16.9091C16.7645 35.0399 16.6258 34.9893 16.5235 34.8993C16.4212 34.8093 16.3637 34.6873 16.3636 34.56V33.12H31.0909C31.5248 33.1196 31.9407 32.9677 32.2475 32.6978C32.5542 32.4278 32.7268 32.0618 32.7273 31.68V15.84H34.3636Z" fill="#F2994A"/>
<path d="M22.3638 15.36H28.9093C29.0539 15.36 29.1927 15.3094 29.295 15.2194C29.3973 15.1294 29.4547 15.0073 29.4547 14.88C29.4547 14.7527 29.3973 14.6306 29.295 14.5406C29.1927 14.4505 29.0539 14.4 28.9093 14.4H22.3638C22.2192 14.4 22.0804 14.4505 21.9781 14.5406C21.8758 14.6306 21.8184 14.7527 21.8184 14.88C21.8184 15.0073 21.8758 15.1294 21.9781 15.2194C22.0804 15.3094 22.2192 15.36 22.3638 15.36Z" fill="#F2994A"/>
<path d="M28.9091 16.32H24C23.8554 16.32 23.7166 16.3706 23.6143 16.4606C23.5121 16.5506 23.4546 16.6727 23.4546 16.8C23.4546 16.9273 23.5121 17.0494 23.6143 17.1394C23.7166 17.2294 23.8554 17.28 24 17.28H28.9091C29.0538 17.28 29.1925 17.2294 29.2948 17.1394C29.3971 17.0494 29.4546 16.9273 29.4546 16.8C29.4546 16.6727 29.3971 16.5506 29.2948 16.4606C29.1925 16.3706 29.0538 16.32 28.9091 16.32Z" fill="#F2994A"/>
<path d="M15.818 20.16H28.9089C29.0536 20.16 29.1923 20.1094 29.2946 20.0194C29.3969 19.9294 29.4544 19.8073 29.4544 19.68C29.4544 19.5527 29.3969 19.4306 29.2946 19.3406C29.1923 19.2506 29.0536 19.2 28.9089 19.2H15.818C15.6734 19.2 15.5346 19.2506 15.4323 19.3406C15.3301 19.4306 15.2726 19.5527 15.2726 19.68C15.2726 19.8073 15.3301 19.9294 15.4323 20.0194C15.5346 20.1094 15.6734 20.16 15.818 20.16Z" fill="#F2994A"/>
<path d="M15.818 23.04H28.9089C29.0536 23.04 29.1923 22.9894 29.2946 22.8994C29.3969 22.8094 29.4544 22.6873 29.4544 22.56C29.4544 22.4327 29.3969 22.3106 29.2946 22.2206C29.1923 22.1306 29.0536 22.08 28.9089 22.08H15.818C15.6734 22.08 15.5346 22.1306 15.4323 22.2206C15.3301 22.3106 15.2726 22.4327 15.2726 22.56C15.2726 22.6873 15.3301 22.8094 15.4323 22.8994C15.5346 22.9894 15.6734 23.04 15.818 23.04Z" fill="#F2994A"/>
<path d="M15.818 25.92H28.9089C29.0536 25.92 29.1923 25.8695 29.2946 25.7794C29.3969 25.6894 29.4544 25.5673 29.4544 25.44C29.4544 25.3127 29.3969 25.1906 29.2946 25.1006C29.1923 25.0106 29.0536 24.96 28.9089 24.96H15.818C15.6734 24.96 15.5346 25.0106 15.4323 25.1006C15.3301 25.1906 15.2726 25.3127 15.2726 25.44C15.2726 25.5673 15.3301 25.6894 15.4323 25.7794C15.5346 25.8695 15.6734 25.92 15.818 25.92Z" fill="#F2994A"/>
<path d="M25.6362 28.8C25.7809 28.8 25.9196 28.7495 26.0219 28.6594C26.1242 28.5694 26.1817 28.4473 26.1817 28.32C26.1817 28.1927 26.1242 28.0706 26.0219 27.9806C25.9196 27.8906 25.7809 27.84 25.6362 27.84H15.818C15.6734 27.84 15.5346 27.8906 15.4323 27.9806C15.3301 28.0706 15.2726 28.1927 15.2726 28.32C15.2726 28.4473 15.3301 28.5694 15.4323 28.6594C15.5346 28.7495 15.6734 28.8 15.818 28.8H25.6362Z" fill="#F2994A"/>
</svg>
