<svg width="2312" height="140" viewBox="0 0 2312 140" fill="none" xmlns="http://www.w3.org/2000/svg">
<g clip-path="url(#clip0)">
<path d="M1058.83 41.6687C1058.12 47.6354 1050.9 50.5629 1043.99 49.6904C1037.09 48.8178 1030.48 45.145 1024.15 41.5967C1017.82 38.0484 1011.17 34.4245 1004.27 33.6883C996.514 32.8586 989.719 35.8062 982.346 36.7408C959.111 39.6991 931.711 22.6963 909.804 28.7019C898.379 31.8325 891.09 40.6376 883.52 48.4734C875.949 56.3039 866.474 63.8773 853.849 63.5056C839.125 63.0713 824.289 51.8806 809.695 52.0867C801.668 52.2024 794.849 55.8002 786.918 56.2775C773.551 57.0778 759.857 49.114 747.056 42.3202C734.267 35.5219 718.913 29.3786 707.285 33.9965L699.327 -30.457L1056.57 -4.73688L1058.83 41.6687Z" fill="url(#paint0_linear)"/>
</g>
<g clip-path="url(#clip1)">
<path d="M1037.03 43.2396C1037.72 50.2102 1046.65 53.5127 1055.3 52.3734C1063.96 51.234 1072.34 46.8226 1080.37 42.5617C1088.4 38.3008 1096.84 33.9458 1105.48 32.9663C1115.2 31.8625 1123.6 35.1957 1132.78 36.1633C1161.71 39.2276 1196.53 18.8603 1223.7 25.5136C1237.87 28.9817 1246.68 39.1616 1255.88 48.2022C1265.07 57.2366 1276.66 65.9376 1292.45 65.2864C1310.86 64.5262 1329.78 51.1757 1348.01 51.1672C1358.04 51.1651 1366.44 55.2588 1376.33 55.6816C1393.01 56.3895 1410.39 46.835 1426.61 38.6651C1442.83 30.4902 1462.22 23.0379 1476.59 28.2432L1488.71 -47.3228L1041.42 -11.1073L1037.03 43.2396Z" fill="url(#paint1_linear)"/>
</g>
<g clip-path="url(#clip2)">
<path d="M339.833 47.6687C339.117 53.6354 331.898 56.5629 324.994 55.6904C318.09 54.8178 311.48 51.145 305.15 47.5967C298.821 44.0485 292.165 40.4245 285.272 39.6883C277.514 38.8586 270.719 41.8062 263.346 42.7408C240.111 45.6991 212.711 28.6963 190.803 34.7019C179.378 37.8325 172.09 46.6376 164.52 54.4734C156.949 62.3039 147.473 69.8773 134.849 69.5056C120.125 69.0713 105.289 57.8806 90.6951 58.0867C82.6679 58.2024 75.8487 61.8002 67.9179 62.2775C54.5507 63.0778 40.8566 55.114 28.0563 48.3202C15.267 41.5219 -0.0873735 35.3786 -11.715 39.9965L-19.6729 -24.457L337.574 1.26312L339.833 47.6687Z" fill="url(#paint2_linear)"/>
</g>
<g clip-path="url(#clip3)">
<path d="M315.03 45.2396C315.723 52.2102 324.645 55.5127 333.302 54.3734C341.96 53.234 350.344 48.8226 358.373 44.5617C366.402 40.3008 374.842 35.9458 383.481 34.9663C393.203 33.8625 401.596 37.1956 410.777 38.1633C439.712 41.2276 474.526 20.8603 501.7 27.5136C515.871 30.9817 524.682 41.1616 533.877 50.2022C543.073 59.2366 554.658 67.9376 570.446 67.2864C588.861 66.5262 607.779 53.1757 626.008 53.1672C636.036 53.1651 644.435 57.2589 654.33 57.6816C671.007 58.3895 688.388 48.835 704.613 40.6651C720.825 32.4902 740.22 25.0379 754.594 30.2432L766.714 -45.3228L319.42 -9.10731L315.03 45.2396Z" fill="url(#paint3_linear)"/>
</g>
<g clip-path="url(#clip4)">
<path d="M2524.83 36.6689C2524.12 42.6357 2516.9 45.5632 2509.99 44.6906C2503.09 43.8181 2496.48 40.1453 2490.15 36.597C2483.82 33.0487 2477.17 29.4248 2470.27 28.6886C2462.51 27.8589 2455.72 30.8064 2448.35 31.7411C2425.11 34.6993 2397.71 17.6965 2375.8 23.7022C2364.38 26.8327 2357.09 35.6379 2349.52 43.4737C2341.95 51.3042 2332.47 58.8776 2319.85 58.5059C2305.12 58.0716 2290.29 46.8808 2275.7 47.087C2267.67 47.2027 2260.85 50.8004 2252.92 51.2777C2239.55 52.0781 2225.86 44.1142 2213.06 37.3204C2200.27 30.5221 2184.91 24.3788 2173.29 28.9968L2165.33 -35.4568L2522.57 -9.73663L2524.83 36.6689Z" fill="url(#paint4_linear)"/>
</g>
<g clip-path="url(#clip5)">
<path d="M1802.83 35.6689C1802.12 41.6357 1794.9 44.5632 1787.99 43.6906C1781.09 42.8181 1774.48 39.1453 1768.15 35.597C1761.82 32.0487 1755.17 28.4248 1748.27 27.6886C1740.51 26.8589 1733.72 29.8064 1726.35 30.7411C1703.11 33.6993 1675.71 16.6965 1653.8 22.7022C1642.38 25.8327 1635.09 34.6379 1627.52 42.4737C1619.95 50.3042 1610.47 57.8776 1597.85 57.5059C1583.12 57.0716 1568.29 45.8808 1553.7 46.087C1545.67 46.2027 1538.85 49.8004 1530.92 50.2777C1517.55 51.0781 1503.86 43.1142 1491.06 36.3204C1478.27 29.5221 1462.91 23.3788 1451.29 27.9968L1443.33 -36.4568L1800.57 -10.7366L1802.83 35.6689Z" fill="url(#paint5_linear)"/>
</g>
<g clip-path="url(#clip6)">
<path d="M1778.03 36.2396C1778.72 43.2102 1787.65 46.5127 1796.3 45.3734C1804.96 44.234 1813.34 39.8226 1821.37 35.5617C1829.4 31.3008 1837.84 26.9458 1846.48 25.9663C1856.2 24.8625 1864.6 28.1956 1873.78 29.1633C1902.71 32.2276 1937.53 11.8603 1964.7 18.5136C1978.87 21.9817 1987.68 32.1616 1996.88 41.2022C2006.07 50.2366 2017.66 58.9376 2033.45 58.2864C2051.86 57.5262 2070.78 44.1757 2089.01 44.1672C2099.04 44.1651 2107.44 48.2589 2117.33 48.6816C2134.01 49.3895 2151.39 39.835 2167.61 31.6651C2183.82 23.4902 2203.22 16.0379 2217.59 21.2432L2229.71 -54.3228L1782.42 -18.1073L1778.03 36.2396Z" fill="url(#paint6_linear)"/>
</g>
<defs>
<linearGradient id="paint0_linear" x1="877.951" y1="-17.597" x2="872.016" y2="64.8414" gradientUnits="userSpaceOnUse">
<stop stop-color="#0F6BCE"/>
<stop offset="1" stop-color="#2586EF"/>
</linearGradient>
<linearGradient id="paint1_linear" x1="1265.07" y1="-29.215" x2="1272.85" y2="66.9057" gradientUnits="userSpaceOnUse">
<stop stop-color="#0F6BCE"/>
<stop offset="1" stop-color="#2586EF"/>
</linearGradient>
<linearGradient id="paint2_linear" x1="158.951" y1="-11.597" x2="153.015" y2="70.8414" gradientUnits="userSpaceOnUse">
<stop stop-color="#0F6BCE"/>
<stop offset="1" stop-color="#2586EF"/>
</linearGradient>
<linearGradient id="paint3_linear" x1="543.067" y1="-27.215" x2="550.85" y2="68.9057" gradientUnits="userSpaceOnUse">
<stop stop-color="#0F6BCE"/>
<stop offset="1" stop-color="#2586EF"/>
</linearGradient>
<linearGradient id="paint4_linear" x1="2343.95" y1="-22.5967" x2="2338.02" y2="59.8416" gradientUnits="userSpaceOnUse">
<stop stop-color="#0F6BCE"/>
<stop offset="1" stop-color="#2586EF"/>
</linearGradient>
<linearGradient id="paint5_linear" x1="1621.95" y1="-23.5967" x2="1616.02" y2="58.8416" gradientUnits="userSpaceOnUse">
<stop stop-color="#0F6BCE"/>
<stop offset="1" stop-color="#2586EF"/>
</linearGradient>
<linearGradient id="paint6_linear" x1="2006.07" y1="-36.215" x2="2013.85" y2="59.9057" gradientUnits="userSpaceOnUse">
<stop stop-color="#0F6BCE"/>
<stop offset="1" stop-color="#2586EF"/>
</linearGradient>
<clipPath id="clip0">
<rect width="349.939" height="91.271" fill="white" transform="matrix(1.02088 0.0734991 0.113106 0.916088 702.327 -28.457)"/>
</clipPath>
<clipPath id="clip1">
<rect width="439.147" height="107.965" fill="white" transform="matrix(-1.01855 0.0824677 -0.145634 0.907956 1488.71 -44.3228)"/>
</clipPath>
<clipPath id="clip2">
<rect width="349.939" height="91.271" fill="white" transform="matrix(1.02088 0.0734991 0.113106 0.916088 -19.6729 -24.457)"/>
</clipPath>
<clipPath id="clip3">
<rect width="439.147" height="107.965" fill="white" transform="matrix(-1.01855 0.0824677 -0.145634 0.907956 766.714 -45.3228)"/>
</clipPath>
<clipPath id="clip4">
<rect width="349.939" height="91.271" fill="white" transform="matrix(1.02088 0.0734991 0.113106 0.916088 2165.33 -35.4568)"/>
</clipPath>
<clipPath id="clip5">
<rect width="349.939" height="91.271" fill="white" transform="matrix(1.02088 0.0734991 0.113106 0.916088 1443.33 -36.4568)"/>
</clipPath>
<clipPath id="clip6">
<rect width="439.147" height="107.965" fill="white" transform="matrix(-1.01855 0.0824677 -0.145634 0.907956 2229.71 -54.3228)"/>
</clipPath>
</defs>
</svg>
