<svg width="28" height="28" viewBox="0 0 28 28" fill="none" xmlns="http://www.w3.org/2000/svg">
<g clip-path="url(#clip0)">
<path d="M21.3837 13.7514H23.3368C23.7784 13.7514 24.1376 13.3921 24.1376 12.9506V10.9975C24.1376 10.5559 23.7784 10.1967 23.3368 10.1967H21.3837C20.9422 10.1967 20.5829 10.5559 20.5829 10.9975V12.9506C20.5829 13.3921 20.9422 13.7514 21.3837 13.7514ZM21.4032 11.017H23.3173V12.9311H21.4032V11.017ZM21.3837 18.9467H23.3368C23.7784 18.9467 24.1376 18.5875 24.1376 18.1459V16.1928C24.1376 15.7513 23.7784 15.392 23.3368 15.392H21.3837C20.9422 15.392 20.5829 15.7513 20.5829 16.1928V18.1459C20.5829 18.5875 20.9422 18.9467 21.3837 18.9467ZM21.4032 16.2123H23.3173V18.1264H21.4032V16.2123ZM15.8102 13.7514H17.7633C18.2048 13.7514 18.5641 13.3921 18.5641 12.9506V10.9975C18.5641 10.5559 18.2048 10.1967 17.7633 10.1967H15.8102C15.3686 10.1967 15.0094 10.5559 15.0094 10.9975V12.9506C15.0094 13.3921 15.3686 13.7514 15.8102 13.7514ZM15.8297 11.017H17.7438V12.9311H15.8297V11.017ZM6.61624 20.3438H4.66313C4.22158 20.3438 3.86234 20.703 3.86234 21.1445V23.0976C3.86234 23.5392 4.22158 23.8984 4.66313 23.8984H6.61624C7.05779 23.8984 7.41703 23.5392 7.41703 23.0976V21.1445C7.41703 20.703 7.05779 20.3438 6.61624 20.3438ZM6.59672 23.0781H4.68265V21.1641H6.59672V23.0781ZM6.61624 10.1967H4.66313C4.22158 10.1967 3.86234 10.5559 3.86234 10.9975V12.9506C3.86234 13.3921 4.22158 13.7514 4.66313 13.7514H6.61624C7.05779 13.7514 7.41703 13.3921 7.41703 12.9506V10.9975C7.41703 10.5559 7.05779 10.1967 6.61624 10.1967ZM6.59672 12.9311H4.68265V11.017H6.59672V12.9311ZM15.8102 18.8249H17.7633C18.2048 18.8249 18.5641 18.4657 18.5641 18.0241V16.071C18.5641 15.6295 18.2048 15.2702 17.7633 15.2702H15.8102C15.3686 15.2702 15.0094 15.6295 15.0094 16.071V18.0241C15.0094 18.4657 15.3686 18.8249 15.8102 18.8249ZM15.8297 16.0905H17.7438V18.0046H15.8297V16.0905ZM24.545 1.87436H22.7914V1.24726C22.7914 0.559508 22.2319 0 21.5441 0H21.3558C20.6681 0 20.1086 0.559508 20.1086 1.24726V1.87436H7.89139V1.24726C7.89139 0.559508 7.33188 0 6.64413 0H6.45579C5.76804 0 5.20853 0.559508 5.20853 1.24726V1.87436H3.45497C2.32267 1.87436 1.40146 2.79557 1.40146 3.92787V25.9492C1.40146 27.08 2.32141 28 3.45224 28H24.5478C25.6787 28 26.5986 27.08 26.5986 25.9492V3.92787C26.5986 2.79557 25.6773 1.87436 24.545 1.87436ZM20.9289 1.24726C20.9289 1.01183 21.1204 0.820312 21.3558 0.820312H21.5442C21.7796 0.820312 21.9711 1.01183 21.9711 1.24726V1.87436H20.9289V1.24726ZM6.0289 1.24726C6.0289 1.01183 6.22041 0.820312 6.45584 0.820312H6.64419C6.87962 0.820312 7.07113 1.01183 7.07113 1.24726V1.87436H6.02895V1.24726H6.0289ZM25.7782 25.9492C25.7782 26.6277 25.2263 27.1797 24.5478 27.1797H3.45219C2.77368 27.1797 2.22172 26.6277 2.22172 25.9492V25.9466C2.56537 26.2056 2.99254 26.3594 3.45497 26.3594H20.0845C20.633 26.3594 21.1487 26.1458 21.5366 25.7579L25.7782 21.5162V25.9492ZM21.1181 25.0163C21.1502 24.8836 21.1677 24.7452 21.1677 24.6027V21.8648C21.1677 21.3486 21.5878 20.9285 22.1041 20.9285H24.8419C24.9844 20.9285 25.1228 20.911 25.2555 20.8789L21.1181 25.0163ZM25.7782 7.73577H8.30155C8.07503 7.73577 7.89139 7.91941 7.89139 8.14592C7.89139 8.37244 8.07503 8.55608 8.30155 8.55608H25.7782V19.1719C25.7782 19.6882 25.3582 20.1083 24.8419 20.1083H22.1041C21.1354 20.1083 20.3474 20.8963 20.3474 21.8649V24.6028C20.3474 25.1191 19.9273 25.5391 19.4111 25.5391H3.45497C2.77499 25.5391 2.22177 24.9859 2.22177 24.3059V8.55608H6.66092C6.88744 8.55608 7.07108 8.37244 7.07108 8.14592C7.07108 7.91941 6.88744 7.73577 6.66092 7.73577H2.22172V3.92787C2.22172 3.24789 2.77494 2.69467 3.45492 2.69467H5.20853V3.90064C5.20853 4.58839 5.76804 5.1479 6.45579 5.1479C6.6823 5.1479 6.86594 4.96426 6.86594 4.73774C6.86594 4.51123 6.6823 4.32759 6.45579 4.32759C6.22036 4.32759 6.02884 4.13607 6.02884 3.90064V2.69467H20.1086V3.90064C20.1086 4.58839 20.6681 5.1479 21.3558 5.1479C21.5823 5.1479 21.766 4.96426 21.766 4.73774C21.766 4.51123 21.5823 4.32759 21.3558 4.32759C21.1204 4.32759 20.9289 4.13607 20.9289 3.90064V2.69467H24.545C25.225 2.69467 25.7782 3.24789 25.7782 3.92787V7.73577ZM6.61624 15.2702H4.66313C4.22158 15.2702 3.86234 15.6295 3.86234 16.071V18.0241C3.86234 18.4657 4.22158 18.8249 4.66313 18.8249H6.61624C7.05779 18.8249 7.41703 18.4657 7.41703 18.0241V16.071C7.41703 15.6294 7.05779 15.2702 6.61624 15.2702ZM6.59672 18.0046H4.68265V16.0905H6.59672V18.0046ZM10.2367 13.7514H12.1898C12.6313 13.7514 12.9906 13.3921 12.9906 12.9506V10.9975C12.9906 10.5559 12.6313 10.1967 12.1898 10.1967H10.2367C9.79511 10.1967 9.43587 10.5559 9.43587 10.9975V12.9506C9.43587 13.3921 9.79511 13.7514 10.2367 13.7514ZM10.2562 11.017H12.1702V12.9311H10.2562V11.017ZM15.8292 23.0781C15.8191 22.8606 15.6395 22.6875 15.4195 22.6875C15.193 22.6875 15.0093 22.8711 15.0093 23.0976C15.0093 23.5392 15.3686 23.8984 15.8101 23.8984H17.7632C18.2048 23.8984 18.564 23.5392 18.564 23.0976V21.1445C18.564 20.703 18.2048 20.3438 17.7632 20.3438H15.8101C15.3686 20.3438 15.0093 20.703 15.0093 21.1445V21.7078C15.0093 21.9343 15.193 22.118 15.4195 22.118C15.646 22.118 15.8297 21.9343 15.8297 21.7078V21.1641H17.7437V23.0781H15.8292ZM10.2367 18.8249H12.1898C12.6313 18.8249 12.9906 18.4657 12.9906 18.0241V16.071C12.9906 15.6295 12.6313 15.2702 12.1898 15.2702H10.2367C9.79511 15.2702 9.43587 15.6295 9.43587 16.071V18.0241C9.43587 18.4657 9.79511 18.8249 10.2367 18.8249ZM10.2562 16.0905H12.1702V18.0046H10.2562V16.0905ZM10.2367 23.8984H12.1898C12.6313 23.8984 12.9906 23.5392 12.9906 23.0976V21.1445C12.9906 20.703 12.6313 20.3438 12.1898 20.3438H10.2367C9.79511 20.3438 9.43587 20.703 9.43587 21.1445V23.0976C9.43587 23.5392 9.79511 23.8984 10.2367 23.8984ZM10.2562 21.1641H12.1702V23.0781H10.2562V21.1641Z" fill="black"/>
</g>
<defs>
<clipPath id="clip0">
<rect width="28" height="28" fill="white"/>
</clipPath>
</defs>
</svg>
