<svg width="18" height="18" viewBox="0 0 18 18" fill="none" xmlns="http://www.w3.org/2000/svg">
<g clip-path="url(#clip0)">
<path d="M13.7467 8.84018H15.0023C15.2861 8.84018 15.517 8.60924 15.517 8.32539V7.06982C15.517 6.78596 15.2861 6.55502 15.0023 6.55502H13.7467C13.4628 6.55502 13.2319 6.78596 13.2319 7.06982V8.32539C13.2319 8.60924 13.4628 8.84018 13.7467 8.84018ZM13.7592 7.08237H14.9897V8.31284H13.7592V7.08237ZM13.7467 12.18H15.0023C15.2861 12.18 15.517 11.9491 15.517 11.6652V10.4097C15.517 10.1258 15.2861 9.89487 15.0023 9.89487H13.7467C13.4628 9.89487 13.2319 10.1258 13.2319 10.4097V11.6652C13.2319 11.9491 13.4628 12.18 13.7467 12.18ZM13.7592 10.4222H14.9897V11.6527H13.7592V10.4222ZM10.1637 8.84018H11.4193C11.7031 8.84018 11.9341 8.60924 11.9341 8.32539V7.06982C11.9341 6.78596 11.7031 6.55502 11.4193 6.55502H10.1637C9.87985 6.55502 9.6489 6.78596 9.6489 7.06982V8.32539C9.6489 8.60924 9.87985 8.84018 10.1637 8.84018ZM10.1762 7.08237H11.4067V8.31284H10.1762V7.08237ZM4.2533 13.0781H2.99773C2.71388 13.0781 2.48294 13.3091 2.48294 13.5929V14.8485C2.48294 15.1323 2.71388 15.3633 2.99773 15.3633H4.2533C4.53715 15.3633 4.76809 15.1323 4.76809 14.8485V13.5929C4.76809 13.3091 4.53715 13.0781 4.2533 13.0781ZM4.24075 14.8359H3.01028V13.6055H4.24075V14.8359ZM4.2533 6.55502H2.99773C2.71388 6.55502 2.48294 6.78596 2.48294 7.06982V8.32539C2.48294 8.60924 2.71388 8.84018 2.99773 8.84018H4.2533C4.53715 8.84018 4.76809 8.60924 4.76809 8.32539V7.06982C4.76809 6.78593 4.53715 6.55502 4.2533 6.55502ZM4.24075 8.31284H3.01028V7.08237H4.24075V8.31284ZM10.1637 12.1017H11.4193C11.7031 12.1017 11.9341 11.8708 11.9341 11.5869V10.3314C11.9341 10.0475 11.7031 9.81657 11.4193 9.81657H10.1637C9.87985 9.81657 9.6489 10.0475 9.6489 10.3314V11.5869C9.6489 11.8708 9.87985 12.1017 10.1637 12.1017ZM10.1762 10.3439H11.4067V11.5744H10.1762V10.3439ZM15.7789 1.20495H14.6516V0.801809C14.6516 0.359684 14.2919 0 13.8498 0H13.7287C13.2866 0 12.9269 0.359684 12.9269 0.801809V1.20495H5.07304V0.801809C5.07304 0.359684 4.71335 0 4.27123 0H4.15015C3.70803 0 3.34834 0.359684 3.34834 0.801809V1.20495H2.22106C1.49315 1.20495 0.90094 1.79715 0.90094 2.52506V16.6816C0.90094 17.4086 1.49234 18 2.2193 18H15.7808C16.5077 18 17.0991 17.4086 17.0991 16.6816V2.52506C17.0991 1.79715 16.5069 1.20495 15.7789 1.20495ZM13.4543 0.801809C13.4543 0.650461 13.5774 0.527344 13.7288 0.527344H13.8498C14.0012 0.527344 14.1243 0.650461 14.1243 0.801809V1.20495H13.4543V0.801809ZM3.87572 0.801809C3.87572 0.650461 3.99884 0.527344 4.15019 0.527344H4.27126C4.42261 0.527344 4.54573 0.650461 4.54573 0.801809V1.20495H3.87576V0.801809H3.87572ZM16.5717 16.6816C16.5717 17.1178 16.2169 17.4727 15.7807 17.4727H2.21926C1.78308 17.4727 1.42825 17.1178 1.42825 16.6816V16.68C1.64917 16.8465 1.92378 16.9453 2.22106 16.9453H12.9115C13.2641 16.9453 13.5956 16.808 13.8449 16.5586L16.5717 13.8318V16.6816ZM13.5759 16.0819C13.5966 15.9966 13.6078 15.9076 13.6078 15.816V14.056C13.6078 13.7241 13.8778 13.4541 14.2098 13.4541H15.9698C16.0614 13.4541 16.1503 13.4428 16.2357 13.4221L13.5759 16.0819ZM16.5717 4.97299H5.33671C5.19109 4.97299 5.07304 5.09105 5.07304 5.23666C5.07304 5.38228 5.19109 5.50034 5.33671 5.50034H16.5717V12.3248C16.5717 12.6567 16.3017 12.9267 15.9698 12.9267H14.2098C13.5871 12.9267 13.0805 13.4333 13.0805 14.056V15.8161C13.0805 16.148 12.8104 16.418 12.4786 16.418H2.22106C1.78392 16.418 1.42828 16.0624 1.42828 15.6252V5.50034H4.28202C4.42764 5.50034 4.54569 5.38228 4.54569 5.23666C4.54569 5.09105 4.42764 4.97299 4.28202 4.97299H1.42825V2.52506C1.42825 2.08793 1.78389 1.73229 2.22102 1.73229H3.34834V2.50755C3.34834 2.94968 3.70803 3.30936 4.15015 3.30936C4.29577 3.30936 4.41382 3.19131 4.41382 3.04569C4.41382 2.90007 4.29577 2.78202 4.15015 2.78202C3.9988 2.78202 3.87569 2.6589 3.87569 2.50755V1.73229H12.9269V2.50755C12.9269 2.94968 13.2866 3.30936 13.7288 3.30936C13.8744 3.30936 13.9924 3.19131 13.9924 3.04569C13.9924 2.90007 13.8744 2.78202 13.7288 2.78202C13.5774 2.78202 13.4543 2.6589 13.4543 2.50755V1.73229H15.779C16.2161 1.73229 16.5717 2.08793 16.5717 2.52506V4.97299ZM4.2533 9.81657H2.99773C2.71388 9.81657 2.48294 10.0475 2.48294 10.3314V11.5869C2.48294 11.8708 2.71388 12.1017 2.99773 12.1017H4.2533C4.53715 12.1017 4.76809 11.8708 4.76809 11.5869V10.3314C4.76809 10.0475 4.53715 9.81657 4.2533 9.81657ZM4.24075 11.5744H3.01028V10.3439H4.24075V11.5744ZM6.58071 8.84018H7.83628C8.12014 8.84018 8.35108 8.60924 8.35108 8.32539V7.06982C8.35108 6.78596 8.12014 6.55502 7.83628 6.55502H6.58071C6.29686 6.55502 6.06592 6.78596 6.06592 7.06982V8.32539C6.06592 8.60924 6.29686 8.84018 6.58071 8.84018ZM6.59326 7.08237H7.82373V8.31284H6.59326V7.08237ZM10.1759 14.8359C10.1694 14.6961 10.054 14.5848 9.91254 14.5848C9.76692 14.5848 9.64887 14.7029 9.64887 14.8485C9.64887 15.1323 9.87981 15.3633 10.1637 15.3633H11.4192C11.7031 15.3633 11.934 15.1323 11.934 14.8485V13.5929C11.934 13.3091 11.7031 13.0781 11.4192 13.0781H10.1637C9.87981 13.0781 9.64887 13.3091 9.64887 13.5929V13.955C9.64887 14.1006 9.76692 14.2187 9.91254 14.2187C10.0582 14.2187 10.1762 14.1006 10.1762 13.955V13.6055H11.4067V14.8359H10.1759ZM6.58071 12.1017H7.83628C8.12014 12.1017 8.35108 11.8708 8.35108 11.5869V10.3314C8.35108 10.0475 8.12014 9.81657 7.83628 9.81657H6.58071C6.29686 9.81657 6.06592 10.0475 6.06592 10.3314V11.5869C6.06592 11.8708 6.29686 12.1017 6.58071 12.1017ZM6.59326 10.3439H7.82373V11.5744H6.59326V10.3439ZM6.58071 15.3633H7.83628C8.12014 15.3633 8.35108 15.1323 8.35108 14.8485V13.5929C8.35108 13.3091 8.12014 13.0781 7.83628 13.0781H6.58071C6.29686 13.0781 6.06592 13.3091 6.06592 13.5929V14.8485C6.06592 15.1323 6.29686 15.3633 6.58071 15.3633ZM6.59326 13.6055H7.82373V14.8359H6.59326V13.6055Z" fill="white" fill-opacity="0.8"/>
</g>
<defs>
<clipPath id="clip0">
<rect width="18" height="18" fill="white"/>
</clipPath>
</defs>
</svg>
