<svg width="24" height="19" viewBox="0 0 24 19" fill="none" xmlns="http://www.w3.org/2000/svg">
<path d="M10.3942 15.9869V15.9869C10.3942 15.5082 10.2564 15.0541 10.0076 14.7069C9.75936 14.3604 9.37193 14.0891 8.89271 14.0891C8.41347 14.0891 8.02603 14.3604 7.77776 14.7069C7.52902 15.0541 7.39114 15.5082 7.39114 15.9869C7.39114 16.4639 7.52925 16.9177 7.77745 17.2649C8.02493 17.611 8.41218 17.8848 8.89271 17.8848C9.37323 17.8848 9.76046 17.611 10.0079 17.2649C10.2561 16.9177 10.3942 16.4639 10.3942 15.9869ZM4.51068 9.87335L4.5109 7.72423L4.51094 7.33877L4.13818 7.24065L2.65638 6.8506L7.07238 6.31622L7.10963 5.3294L3.00983 4.51589L7.10576 3.94801L7.12651 2.96081L3.05175 2.22025L4.09007 2.05323L4.51067 1.98558V1.55958V1.34832C4.51067 1.06828 4.59299 0.835867 4.70057 0.686058C4.80898 0.535092 4.91371 0.5 4.97675 0.5H16.0355C16.1007 0.5 16.2051 0.535623 16.3125 0.685607C16.4196 0.83501 16.5016 1.06742 16.5016 1.34832V2.35062V2.85062H17.0016H18.9176C19.0587 2.85062 19.2465 2.92953 19.418 3.16579L23.2129 8.40382C23.2131 8.40413 23.2133 8.40444 23.2136 8.40475C23.3858 8.64564 23.4993 8.99827 23.4993 9.389V9.87335H4.51068ZM19.4947 3.66399L19.4895 3.65711L19.4841 3.65041C19.3914 3.53537 19.2219 3.40571 18.9885 3.40571H18.2897C18.0456 3.40571 17.8707 3.54438 17.7762 3.67631C17.6812 3.80887 17.6383 3.96634 17.6383 4.11697V8.07665C17.6383 8.22729 17.6812 8.38477 17.7762 8.51736C17.8708 8.64932 18.0457 8.78786 18.2897 8.78786H21.9641C22.3621 8.78786 22.5374 8.45687 22.5845 8.29205C22.6384 8.10351 22.6318 7.8406 22.466 7.62226C22.4654 7.62147 22.4648 7.62068 22.4642 7.6199L19.4947 3.66399ZM7.38965 15.987C7.38965 15.3061 7.58753 14.7105 7.88249 14.298C8.17802 13.8846 8.54177 13.6869 8.89271 13.6869C9.24364 13.6869 9.60738 13.8846 9.9029 14.298C10.1979 14.7105 10.3957 15.3061 10.3958 15.987C10.3958 16.6653 10.198 17.2598 9.90307 17.6719C9.60751 18.0849 9.2437 18.2826 8.89271 18.2826C8.54172 18.2826 8.17791 18.0849 7.88234 17.6719C7.58738 17.2598 7.38965 16.6653 7.38965 15.987ZM23.5 11.6187V14.1038C23.5 14.3836 23.418 14.6161 23.3106 14.766C23.2026 14.9167 23.098 14.9521 23.0339 14.9521H22.432C22.2809 14.1523 21.9574 13.4336 21.5041 12.8818C20.967 12.228 20.2259 11.788 19.3756 11.788C18.5266 11.788 17.7863 12.2283 17.2497 12.882C16.7969 13.4337 16.4735 14.1524 16.3224 14.9521H11.9465C11.7955 14.1523 11.472 13.4336 11.0192 12.882C10.4827 12.2283 9.74236 11.788 8.89333 11.788C8.0443 11.788 7.304 12.2283 6.76746 12.882C6.31469 13.4337 5.99123 14.1524 5.84019 14.9521H4.97741C4.91331 14.9521 4.80873 14.9167 4.70072 14.766C4.59334 14.6161 4.51133 14.3836 4.51133 14.1038V11.6187H23.5ZM17.8719 15.987C17.8719 15.3065 18.0704 14.711 18.366 14.2984C18.6624 13.8848 19.027 13.6869 19.3782 13.6869C19.7272 13.6869 20.0911 13.8843 20.3873 14.2982C20.6827 14.7109 20.8812 15.3065 20.8812 15.987C20.8812 16.6649 20.6829 17.2594 20.3874 17.6717C20.0912 18.0851 19.7273 18.2826 19.3782 18.2826C19.027 18.2826 18.6623 18.0846 18.3659 17.6715C18.0702 17.2593 17.8719 16.6649 17.8719 15.987ZM17.8766 15.9869C17.8766 16.4639 18.0147 16.9177 18.2629 17.2649C18.5104 17.611 18.8976 17.8848 19.3782 17.8848C19.8576 17.8848 20.2445 17.6105 20.4919 17.2653C20.7403 16.9185 20.8797 16.4647 20.8797 15.9869C20.8797 15.5074 20.7406 15.0533 20.4916 14.7065C20.2434 14.361 19.8563 14.0891 19.3782 14.0891C18.8989 14.0891 18.5115 14.3604 18.2632 14.7069C18.0145 15.0541 17.8766 15.5082 17.8766 15.9869Z" stroke="#999999"/>
</svg>
