<svg width="28" height="24" viewBox="0 0 28 24" fill="none" xmlns="http://www.w3.org/2000/svg">
<path d="M14.0545 14C13.6069 14 13.1693 14.1173 12.7971 14.3371C12.4249 14.5568 12.1348 14.8692 11.9635 15.2346C11.7922 15.6001 11.7474 16.0022 11.8347 16.3902C11.922 16.7781 12.1376 17.1345 12.4541 17.4142C12.7706 17.6939 13.1739 17.8844 13.613 17.9616C14.052 18.0387 14.5071 17.9991 14.9207 17.8478C15.3342 17.6964 15.6877 17.44 15.9364 17.1111C16.1851 16.7822 16.3178 16.3956 16.3178 16C16.3178 15.4696 16.0794 14.9609 15.6549 14.5858C15.2305 14.2107 14.6548 14 14.0545 14Z" fill="white"/>
<path d="M15.312 9.66294C14.9398 9.8827 14.5022 10 14.0545 10C13.4543 10 12.8786 9.78929 12.4541 9.41421C12.0297 9.03914 11.7912 8.53043 11.7912 8C11.7912 7.60444 11.9239 7.21776 12.1726 6.88886C12.4213 6.55996 12.7748 6.30362 13.1884 6.15224C13.602 6.00087 14.057 5.96126 14.4961 6.03843C14.9351 6.1156 15.3384 6.30608 15.6549 6.58579C15.9715 6.86549 16.187 7.22186 16.2744 7.60982C16.3617 7.99778 16.3169 8.39992 16.1456 8.76537C15.9743 9.13082 15.6842 9.44318 15.312 9.66294Z" fill="white"/>
</svg>
