<svg width="24" height="24" viewBox="0 0 24 24" fill="none" xmlns="http://www.w3.org/2000/svg">
<path d="M17.7908 4.76062L14.159 1.85259L14.5493 1.36367C14.5493 1.3636 14.5494 1.36353 14.5495 1.36345C15.3419 0.372123 16.7862 0.21125 17.7757 1.00137L17.8172 1.03557L17.8172 1.03562L17.823 1.04031C18.8155 1.83336 18.9758 3.27972 18.1833 4.26931L18.1829 4.2698L17.7908 4.76062Z" stroke="white"/>
<path d="M12.9787 3.32811L2.32118 16.6501L5.95289 19.558L15.8713 7.16313L16.1837 6.77278L16.5741 7.08509L17.3829 7.73219L17.7734 8.04454L17.461 8.43497L14.1525 12.5707L14.1503 12.5734C14.0936 12.6432 14.0692 12.7325 14.079 12.8221L12.9787 3.32811ZM12.9787 3.32811L16.5624 6.20144L16.5594 6.20448L16.9957 6.5535L17.8045 7.2006L18.1948 7.51278L18.5072 7.12272L18.979 6.53351L12.9787 3.32811ZM14.6838 12.9978L14.684 12.9976L19.5242 6.9441L19.5245 6.94366C19.6436 6.79508 19.6177 6.57661 19.464 6.45983C19.326 6.35548 19.1062 6.37569 18.9794 6.53303L14.6838 12.9978ZM14.6838 12.9978C14.5682 13.1426 14.3545 13.168 14.2061 13.0508M14.6838 12.9978L14.2061 13.0508M14.2061 13.0508C14.1297 12.9882 14.0882 12.9053 14.079 12.8222L14.2061 13.0508Z" stroke="white"/>
<path d="M1.45478 18.4758L4.36023 20.8031L0.612682 22.5086L1.45478 18.4758Z" stroke="white"/>
<path d="M23.3171 21.7299C23.2806 21.7299 23.2467 21.7326 23.2101 21.7378L16.7992 22.5675C16.4704 22.6093 16.2408 22.2492 16.4182 21.9674C16.5147 21.8187 16.6087 21.6673 16.7026 21.516C16.9505 21.1142 16.6191 20.5793 16.1599 20.5793C16.1286 20.5793 16.0973 20.5819 16.0633 20.5871L7.66152 21.85L6.65695 22.0013L3.91722 22.4136C3.60672 22.4606 3.39798 22.7241 3.42407 23.0398C3.43451 23.1807 3.49191 23.3138 3.58324 23.413C3.69022 23.5304 3.83895 23.5956 4.00072 23.5956C4.03203 23.5956 4.06334 23.593 4.09726 23.5878L14.1116 22.0822C14.4535 22.03 14.6883 22.4162 14.4874 22.698C14.4221 22.7867 14.3569 22.8781 14.2917 22.9668C14.1116 23.212 14.1534 23.6217 14.3621 23.833C14.4691 23.9426 14.6048 24 14.7483 24C14.764 24 14.7822 24 14.7979 23.9974H14.8005H14.8031L23.4476 22.8963H23.4502H23.4528C23.6015 22.8728 23.732 22.7867 23.8181 22.6536C23.9121 22.5075 23.946 22.3275 23.9042 22.1657C23.8363 21.9021 23.6067 21.7299 23.3171 21.7299Z" fill="white"/>
</svg>
