<svg width="24" height="24" viewBox="0 0 24 24" fill="none" xmlns="http://www.w3.org/2000/svg">
<g clip-path="url(#clip0)">
<path d="M3.02467 12.6547C3.35172 17.3124 7.24652 21.0033 11.9862 21.0033C14.3869 21.0033 16.6416 20.069 18.3403 18.3719L3.02467 12.6547ZM3.02467 12.6547L4.45861 14.0905L4.4593 14.0912C4.68156 14.312 5.03987 14.3121 5.26213 14.0911L5.26213 14.0911L5.26375 14.0895C5.48275 13.8676 5.48356 13.5091 5.26318 13.2873L5.26264 13.2868L2.76623 10.7893L2.5894 10.6124L2.41259 10.7893L-0.082655 13.2862C-0.0827632 13.2863 -0.0828712 13.2864 -0.0829792 13.2865C-0.305918 13.5083 -0.305333 13.8681 -0.0837536 14.0901C0.0278793 14.2028 0.174821 14.2566 0.31757 14.2566C0.462625 14.2566 0.609153 14.2016 0.719625 14.0902C0.719796 14.09 0.719967 14.0898 0.720138 14.0896L1.91108 12.8981C2.35908 18.0677 6.69867 22.1401 11.9832 22.1401C14.6869 22.1401 17.2295 21.0867 19.1418 19.1752L19.1419 19.1751C19.3628 18.9541 19.3636 18.5955 19.1435 18.3737C18.9228 18.1469 18.5607 18.1515 18.3403 18.3718L3.02467 12.6547Z" fill="#F2994A" stroke="#F2994A" stroke-width="0.5"/>
<path d="M23.2799 9.90947L22.0894 11.1011C21.6399 5.93154 17.3004 1.85989 12.0166 1.85989C9.31139 1.85989 6.76977 2.91321 4.85744 4.82458C4.63486 5.04602 4.63451 5.40601 4.8569 5.62771C5.0781 5.8508 5.43902 5.85005 5.66017 5.62799C7.35802 3.93092 9.6135 2.99656 12.0142 2.99656C16.7533 2.99656 20.6489 6.6869 20.9772 11.3454L19.5418 9.90929L19.5417 9.90925C19.3198 9.68735 18.9603 9.68804 18.7383 9.90878L18.7367 9.91041C18.5177 10.1323 18.5169 10.4907 18.7373 10.7126L18.7379 10.7131L21.2345 13.2098L21.4114 13.3866L21.5881 13.2098L24.084 10.7131C24.084 10.7131 24.084 10.7131 24.084 10.7131C24.3058 10.4913 24.3051 10.1316 24.0833 9.90963C23.8617 9.68698 23.5019 9.6886 23.2804 9.90891L23.2799 9.90947Z" fill="#F2994A" stroke="#F2994A" stroke-width="0.5"/>
</g>
<defs>
<clipPath id="clip0">
<rect width="24" height="24" fill="white"/>
</clipPath>
</defs>
</svg>
