<svg width="24" height="24" viewBox="0 0 24 24" fill="none" xmlns="http://www.w3.org/2000/svg">
<g clip-path="url(#clip0)">
<path d="M17.7908 5.76062L14.159 2.85259L14.5493 2.36367C14.5493 2.3636 14.5494 2.36353 14.5495 2.36345C15.3419 1.37212 16.7862 1.21125 17.7757 2.00137L17.8172 2.03557L17.8172 2.03562L17.823 2.04031C18.8155 2.83336 18.9758 4.27972 18.1833 5.26931L18.1829 5.2698L17.7908 5.76062Z" stroke="#333333"/>
<path d="M12.9787 4.32811L2.32118 17.6501L5.95289 20.558L15.8713 8.16313L16.1837 7.77278L16.5741 8.08509L17.3829 8.73219L17.7734 9.04454L17.461 9.43497L14.1525 13.5707L14.1503 13.5734C14.0936 13.6432 14.0692 13.7325 14.079 13.8221L12.9787 4.32811ZM12.9787 4.32811L16.5624 7.20144L16.5594 7.20448L16.9957 7.5535L17.8045 8.2006L18.1948 8.51278L18.5072 8.12272L18.979 7.53351L12.9787 4.32811ZM14.6838 13.9978L14.684 13.9976L19.5242 7.9441L19.5245 7.94366C19.6436 7.79508 19.6177 7.57661 19.464 7.45983C19.326 7.35548 19.1062 7.37569 18.9794 7.53303L14.6838 13.9978ZM14.6838 13.9978C14.5682 14.1426 14.3545 14.168 14.2061 14.0508M14.6838 13.9978L14.2061 14.0508M14.2061 14.0508C14.1297 13.9882 14.0882 13.9053 14.079 13.8222L14.2061 14.0508Z" stroke="#333333"/>
<path d="M1.37677 18.892L4.28222 21.2193L0.534679 22.9248L1.37677 18.892Z" stroke="#333333"/>
<path d="M23.3171 21.7299C23.2806 21.7299 23.2467 21.7326 23.2101 21.7378L16.7992 22.5675C16.4704 22.6093 16.2408 22.2492 16.4182 21.9674C16.5147 21.8187 16.6087 21.6673 16.7026 21.516C16.9505 21.1142 16.6191 20.5793 16.1599 20.5793C16.1286 20.5793 16.0973 20.5819 16.0633 20.5871L7.66152 21.85L6.65695 22.0013L3.91722 22.4136C3.60672 22.4606 3.39798 22.7241 3.42407 23.0398C3.43451 23.1807 3.49191 23.3138 3.58324 23.413C3.69022 23.5304 3.83895 23.5956 4.00072 23.5956C4.03203 23.5956 4.06334 23.593 4.09726 23.5878L14.1116 22.0822C14.4535 22.03 14.6883 22.4162 14.4874 22.698C14.4221 22.7867 14.3569 22.8781 14.2917 22.9668C14.1116 23.212 14.1534 23.6217 14.3621 23.833C14.4691 23.9426 14.6048 24 14.7483 24C14.764 24 14.7822 24 14.7979 23.9974H14.8005H14.8031L23.4476 22.8963H23.4502H23.4528C23.6015 22.8728 23.732 22.7867 23.8181 22.6536C23.9121 22.5075 23.946 22.3275 23.9042 22.1657C23.8363 21.9021 23.6067 21.7299 23.3171 21.7299Z" fill="#333333"/>
</g>
<defs>
<clipPath id="clip0">
<rect width="24" height="24" fill="white"/>
</clipPath>
</defs>
</svg>
