<svg width="24" height="24" viewBox="0 0 24 24" fill="none" xmlns="http://www.w3.org/2000/svg">
<circle cx="12" cy="12" r="12" fill="#2586EF"/>
<g clip-path="url(#clip0)">
<path d="M16.799 7.59271L16.799 7.59272L9.78737 14.6044L7.20106 12.0181C7.20106 12.0181 7.20106 12.0181 7.20105 12.0181C6.86909 11.6861 6.33094 11.6862 5.99899 12.0181L5.99898 12.0181C5.667 12.35 5.66701 12.8882 5.99897 13.2201L5.99897 13.2201L9.1863 16.4074C9.18631 16.4074 9.18632 16.4074 9.18633 16.4074C9.51826 16.7394 10.0567 16.7391 10.3884 16.4074L18.001 8.79481C18.001 8.79481 18.0011 8.79481 18.0011 8.7948C18.333 8.46285 18.333 7.92467 18.0011 7.59273C17.6691 7.26075 17.1309 7.26077 16.799 7.59271Z" fill="white" stroke="white" stroke-width="0.5"/>
</g>
<defs>
<clipPath id="clip0">
<rect width="12" height="12" fill="white" transform="translate(6 6)"/>
</clipPath>
</defs>
</svg>
