<svg width="1440" height="138" viewBox="0 0 1440 138" fill="none" xmlns="http://www.w3.org/2000/svg">
<g clip-path="url(#clip0)">
<path d="M1029.83 46.6687C1029.12 52.6354 1021.9 55.5629 1014.99 54.6904C1008.09 53.8178 1001.48 50.145 995.151 46.5967C988.821 43.0485 982.165 39.4245 975.272 38.6883C967.514 37.8586 960.719 40.8062 953.346 41.7408C930.111 44.6991 902.711 27.6963 880.804 33.7019C869.378 36.8325 862.09 45.6376 854.52 53.4734C846.949 61.3039 837.474 68.8773 824.849 68.5056C810.125 68.0713 795.289 56.8806 780.695 57.0867C772.668 57.2024 765.849 60.8002 757.918 61.2775C744.551 62.0778 730.857 54.114 718.056 47.3202C705.267 40.5219 689.913 34.3786 678.285 38.9965L670.327 -25.457L1027.57 0.263123L1029.83 46.6687Z" fill="url(#paint0_linear)"/>
</g>
<g clip-path="url(#clip1)">
<path d="M1005.03 44.2396C1005.72 51.2102 1014.65 54.5127 1023.3 53.3734C1031.96 52.234 1040.34 47.8226 1048.37 43.5617C1056.4 39.3008 1064.84 34.9458 1073.48 33.9663C1083.2 32.8625 1091.6 36.1956 1100.78 37.1633C1129.71 40.2276 1164.53 19.8603 1191.7 26.5136C1205.87 29.9817 1214.68 40.1616 1223.88 49.2022C1233.07 58.2366 1244.66 66.9376 1260.45 66.2864C1278.86 65.5262 1297.78 52.1757 1316.01 52.1672C1326.04 52.1651 1334.44 56.2589 1344.33 56.6816C1361.01 57.3895 1378.39 47.835 1394.61 39.6651C1410.82 31.4902 1430.22 24.0379 1444.59 29.2432L1456.71 -46.3228L1009.42 -10.1073L1005.03 44.2396Z" fill="url(#paint1_linear)"/>
</g>
<g clip-path="url(#clip2)">
<path d="M307.833 45.6687C307.117 51.6354 299.898 54.5629 292.994 53.6904C286.09 52.8178 279.48 49.145 273.151 45.5967C266.821 42.0485 260.165 38.4245 253.272 37.6883C245.514 36.8586 238.719 39.8062 231.346 40.7408C208.111 43.6991 180.711 26.6963 158.804 32.7019C147.378 35.8325 140.09 44.6376 132.52 52.4734C124.949 60.3039 115.474 67.8773 102.849 67.5056C88.1249 67.0713 73.2887 55.8806 58.6953 56.0867C50.668 56.2024 43.8488 59.8002 35.9181 60.2775C22.5508 61.0778 8.85671 53.114 -3.94357 46.3202C-16.7329 39.5219 -32.0873 33.3786 -43.7149 37.9965L-51.6727 -26.457L305.574 -0.736877L307.833 45.6687Z" fill="url(#paint2_linear)"/>
</g>
<g clip-path="url(#clip3)">
<path d="M283.03 43.2396C283.723 50.2102 292.646 53.5127 301.303 52.3734C309.96 51.234 318.344 46.8226 326.373 42.5617C334.402 38.3008 342.842 33.9458 351.481 32.9663C361.203 31.8625 369.596 35.1956 378.777 36.1633C407.713 39.2276 442.526 18.8603 469.7 25.5136C483.871 28.9817 492.682 39.1616 501.877 48.2022C511.073 57.2366 522.659 65.9376 538.447 65.2864C556.861 64.5262 575.779 51.1757 594.008 51.1672C604.036 51.1651 612.436 55.2589 622.33 55.6816C639.007 56.3895 656.389 46.835 672.614 38.6651C688.825 30.4902 708.22 23.0379 722.594 28.2432L734.715 -47.3228L287.42 -11.1073L283.03 43.2396Z" fill="url(#paint3_linear)"/>
</g>
<defs>
<linearGradient id="paint0_linear" x1="848.951" y1="-12.597" x2="843.016" y2="69.8414" gradientUnits="userSpaceOnUse">
<stop stop-color="#0F6BCE"/>
<stop offset="1" stop-color="#2586EF"/>
</linearGradient>
<linearGradient id="paint1_linear" x1="1233.07" y1="-28.215" x2="1240.85" y2="67.9057" gradientUnits="userSpaceOnUse">
<stop stop-color="#0F6BCE"/>
<stop offset="1" stop-color="#2586EF"/>
</linearGradient>
<linearGradient id="paint2_linear" x1="126.951" y1="-13.597" x2="121.016" y2="68.8414" gradientUnits="userSpaceOnUse">
<stop stop-color="#0F6BCE"/>
<stop offset="1" stop-color="#2586EF"/>
</linearGradient>
<linearGradient id="paint3_linear" x1="511.067" y1="-29.215" x2="518.85" y2="66.9057" gradientUnits="userSpaceOnUse">
<stop stop-color="#0F6BCE"/>
<stop offset="1" stop-color="#2586EF"/>
</linearGradient>
<clipPath id="clip0">
<rect width="349.939" height="91.271" fill="white" transform="matrix(1.02088 0.0734991 0.113106 0.916088 670.327 -25.457)"/>
</clipPath>
<clipPath id="clip1">
<rect width="439.147" height="107.965" fill="white" transform="matrix(-1.01855 0.0824677 -0.145634 0.907956 1456.71 -46.3228)"/>
</clipPath>
<clipPath id="clip2">
<rect width="349.939" height="91.271" fill="white" transform="matrix(1.02088 0.0734991 0.113106 0.916088 -51.6727 -26.457)"/>
</clipPath>
<clipPath id="clip3">
<rect width="439.147" height="107.965" fill="white" transform="matrix(-1.01855 0.0824677 -0.145634 0.907956 734.715 -47.3228)"/>
</clipPath>
</defs>
</svg>
